# xmcd
#
# Track frame offsets:
#	150
#	11277
#	26495
#	40753
#	63109
#	86615
#	99089
#	117125
#	148114
#	161475
#	177005
#	191183
#	215765
#	234085
#	248252
#	267520
#	285015
#	301729
#	319236
#
# Disc length: 4498 seconds
#
# Revision: 0
# Processed by: cddbd v1.5.2PL0 Copyright (c) Steve Scherf et al.
# Submitted via: EasyCDDAExtractor 11.0.0.1
#
DISCID=e8119013
DTITLE=Various Artist - East Coast Blues and Roots Festival 2003 [CD2)
DYEAR=2003
DGENRE=Blues
TTITLE0=Violent Femmes - Blister in the Sun
TTITLE1=Yothu Yindi - Dots on the shells
TTITLE2=Terrance Simien - That was your mother
TTITLE3=Eric Burdon - House of the rising sun
TTITLE4=Marva Wright - I'm still wearing your name
TTITLE5=Love - She comes in colours
TTITLE6=Roy Ayers - Everybody loves the sunshine
TTITLE7=Paul Kelly - From little things big things grow
TTITLE8=Love and Special Sauce - Rodeo Clowns
TTITLE9=Canned Heat - On the road again
TTITLE10=Keb Mo - Tell everybody I know
TTITLE11=Bela Fleck and The Flecktones - Slow walker
TTITLE12=The Neville Brothers - Yellow Moon
TTITLE13=John Mayall - Hard road
TTITLE14=Kenny Wayne Shepherd Band - Aberdeen
TTITLE15=ZZ Top - La Grange
TTITLE16=Tony Joe White - Polk Salad Annie
TTITLE17=Little Feat - Dixie Chicken
TTITLE18=John Butler Trio - Betterman
EXTD=
EXTT0=
EXTT1=
EXTT2=
EXTT3=
EXTT4=
EXTT5=
EXTT6=
EXTT7=
EXTT8=
EXTT9=
EXTT10=
EXTT11=
EXTT12=
EXTT13=
EXTT14=
EXTT15=
EXTT16=
EXTT17=
EXTT18=
PLAYORDER=
